<svg height="682pt" viewBox="-21 -21 682 682.65452" width="682pt" xmlns="http://www.w3.org/2000/svg"><path d="m345.316406 583.730469h-18.75v-18.75h18.75zm-31.25 0h-18.75v-18.75h18.75zm0 0"/><path d="m370.964844 123.976562h-101.296875v101.300782h101.296875zm-18.75 82.554688h-63.800782v-63.804688h63.800782zm0 0"/><path d="m306.566406 516h111.507813v-65.855469h-47.109375v-93.367187h-18.75v112.117187h47.109375v28.355469h-84.988281l-25.917969-25.914062v-170.589844h-47.109375v-28.359375h110.90625v49.390625h18.75v-68.140625h-148.40625v65.855469h47.109375v159.605468zm0 0"/><path d="m428.417969 59.003906-7.171875 17.316406c65.082031 26.964844 115.773437 77.65625 142.734375 142.738282l17.320312-7.171875c-28.875-69.714844-83.171875-124.007813-152.882812-152.882813zm0 0"/><path d="m546.582031 93.722656c-60.4375-60.4375-140.792969-93.722656-226.265625-93.722656s-165.828125 33.285156-226.265625 93.722656c-60.4375 60.441406-93.722656 140.792969-93.722656 226.265625 0 85.472657 33.285156 165.828125 93.722656 226.265625 122.269531 122.269532 315.398438 123.445313 439.65625 12.160156l-12.511719-13.964843c-55.28125 49.511719-126.621093 76.78125-200.878906 76.78125-166.105468 0-301.238281-135.136719-301.238281-301.242188s135.132813-301.238281 301.238281-301.238281c166.105469 0 301.238282 135.132812 301.238282 301.238281 0 74.257813-27.269532 145.597657-76.78125 200.882813l13.972656 12.507812c111.394531-124.382812 109.980468-317.507812-12.164063-439.65625zm0 0"/></svg>