<?xml version="1.0" encoding="UTF-8" standalone="no"?>
<!-- Generator: Adobe Illustrator 19.0.0, SVG Export Plug-In . SVG Version: 6.00 Build 0)  -->

<svg
   xmlns:dc="http://purl.org/dc/elements/1.1/"
   xmlns:cc="http://creativecommons.org/ns#"
   xmlns:rdf="http://www.w3.org/1999/02/22-rdf-syntax-ns#"
   xmlns:svg="http://www.w3.org/2000/svg"
   xmlns="http://www.w3.org/2000/svg"
   xmlns:sodipodi="http://sodipodi.sourceforge.net/DTD/sodipodi-0.dtd"
   xmlns:inkscape="http://www.inkscape.org/namespaces/inkscape"
   version="1.1"
   id="Capa_1"
   x="0px"
   y="0px"
   viewBox="0 0 512 512"
   style="enable-background:new 0 0 512 512;"
   xml:space="preserve"
   sodipodi:docname="minimize.svg"
   inkscape:version="0.92.3 (2405546, 2018-03-11)"><metadata
   id="metadata49"><rdf:RDF><cc:Work
       rdf:about=""><dc:format>image/svg+xml</dc:format><dc:type
         rdf:resource="http://purl.org/dc/dcmitype/StillImage" /></cc:Work></rdf:RDF></metadata><defs
   id="defs47" /><sodipodi:namedview
   pagecolor="#ffffff"
   bordercolor="#666666"
   borderopacity="1"
   objecttolerance="10"
   gridtolerance="10"
   guidetolerance="10"
   inkscape:pageopacity="0"
   inkscape:pageshadow="2"
   inkscape:window-width="1853"
   inkscape:window-height="1016"
   id="namedview45"
   showgrid="false"
   inkscape:zoom="0.921875"
   inkscape:cx="216.06602"
   inkscape:cy="387.25557"
   inkscape:window-x="67"
   inkscape:window-y="27"
   inkscape:window-maximized="1"
   inkscape:current-layer="Capa_1" />
<g
   id="g6"
   style="fill:#f9f9f9">
	<g
   id="g4"
   style="fill:#f9f9f9">
		<path
   d="M416.667,0H95.333C42.766,0,0,42.767,0,95.334v321.333C0,469.233,42.766,512,95.333,512h321.334    C469.234,512,512,469.233,512,416.667V95.334C512,42.767,469.234,0,416.667,0z M482,416.667C482,452.691,452.692,482,416.667,482    H95.333C59.308,482,30,452.691,30,416.667V95.334C30,59.309,59.308,30,95.333,30h321.334C452.692,30,482,59.309,482,95.334    V416.667z"
   id="path2"
   style="fill:#f9f9f9" />
	</g>
</g>
<g
   id="g12"
   style="fill:#f9f9f9">
	<g
   id="g10"
   style="fill:#f9f9f9">
		<path
   d="M400.601,241H111.399c-8.284,0-15,6.716-15,15s6.716,15,15,15H400.6c8.284,0,15-6.716,15-15    C415.601,247.716,408.885,241,400.601,241z"
   id="path8"
   style="fill:#f9f9f9" />
	</g>
</g>
<g
   id="g14">
</g>
<g
   id="g16">
</g>
<g
   id="g18">
</g>
<g
   id="g20">
</g>
<g
   id="g22">
</g>
<g
   id="g24">
</g>
<g
   id="g26">
</g>
<g
   id="g28">
</g>
<g
   id="g30">
</g>
<g
   id="g32">
</g>
<g
   id="g34">
</g>
<g
   id="g36">
</g>
<g
   id="g38">
</g>
<g
   id="g40">
</g>
<g
   id="g42">
</g>
</svg>