<?xml version="1.0" encoding="iso-8859-1"?>
<!-- Generator: Adobe Illustrator 19.0.0, SVG Export Plug-In . SVG Version: 6.00 Build 0)  -->
<svg version="1.1" id="Capa_1" xmlns="http://www.w3.org/2000/svg" xmlns:xlink="http://www.w3.org/1999/xlink" x="0px" y="0px"
	 viewBox="0 0 511.999 511.999" style="enable-background:new 0 0 511.999 511.999;" xml:space="preserve">
<g>
	<g>
		<path d="M146.368,302.536c-5.443-13.416-18.322-22.084-32.812-22.084c-9.447,0-18.339,3.68-25.044,10.37
			c-3.382,3.381-5.997,7.327-7.772,11.726c-1.55,3.841,0.307,8.212,4.148,9.762c0.92,0.371,1.87,0.547,2.805,0.547
			c2.968,0,5.778-1.774,6.958-4.695c1.017-2.52,2.521-4.786,4.462-6.728c3.867-3.858,8.997-5.982,14.444-5.982
			c8.354,0,15.776,4.994,18.911,12.722c1.558,3.839,5.933,5.688,9.769,4.131C146.076,310.748,147.925,306.374,146.368,302.536z"/>
	</g>
</g>
<g>
	<g>
		<path d="M79.058,239.767c-4.142,0-7.5,3.358-7.5,7.5v3.329c0,4.142,3.358,7.5,7.5,7.5c4.142,0,7.5-3.358,7.5-7.5v-3.329
			C86.558,243.125,83.2,239.767,79.058,239.767z"/>
	</g>
</g>
<g>
	<g>
		<path d="M148.054,239.767c-4.142,0-7.5,3.358-7.5,7.5v3.329c0,4.142,3.358,7.5,7.5,7.5c4.142,0,7.5-3.358,7.5-7.5v-3.329
			C155.554,243.125,152.196,239.767,148.054,239.767z"/>
	</g>
</g>
<g>
	<g>
		<path d="M314.621,251.712c-7.088-17.472-23.862-28.761-42.735-28.761c-19.574,0-36.017,12.113-42.74,28.773
			c-1.551,3.842,0.306,8.213,4.147,9.763c0.92,0.371,1.87,0.547,2.804,0.547c2.968,0,5.778-1.774,6.958-4.695
			c4.51-11.176,15.592-19.387,28.83-19.387c12.736,0,24.055,7.615,28.835,19.399c1.557,3.838,5.929,5.689,9.77,4.13
			C314.328,259.924,316.178,255.55,314.621,251.712z"/>
	</g>
</g>
<g>
	<g>
		<path d="M224.149,166.656c-4.142,0-7.5,3.358-7.5,7.5v4.606c0,4.142,3.358,7.5,7.5,7.5c4.142,0,7.5-3.358,7.5-7.5v-4.606
			C231.649,170.014,228.291,166.656,224.149,166.656z"/>
	</g>
</g>
<g>
	<g>
		<path d="M319.62,166.656c-4.143,0-7.5,3.358-7.5,7.5v4.606c0,4.142,3.358,7.5,7.5,7.5c4.143,0,7.5-3.358,7.5-7.5v-4.606
			C327.12,170.014,323.763,166.656,319.62,166.656z"/>
	</g>
</g>
<g>
	<g>
		<path d="M470.325,341.652c-3.254-2.564-7.969-2.007-10.533,1.246c-2.564,3.252-2.007,7.968,1.246,10.533
			c19.486,15.365,30.663,38.39,30.663,63.173c0,44.331-36.065,80.396-80.396,80.396c-44.33,0-80.396-36.065-80.396-80.396
			s36.065-80.396,80.396-80.396c8.367,0,16.608,1.278,24.496,3.797c3.941,1.259,8.165-0.916,9.427-4.861
			c1.261-3.946-0.916-8.167-4.862-9.427c-9.364-2.992-19.143-4.509-29.061-4.509c-21.24,0-40.878,6.98-56.748,18.763
			c-10.571-4.521-21.796-6.811-33.438-6.811h-5.95v-17.15c10.07-4.674,19.408-11,27.645-18.843
			c17.397-16.576,28.309-38.377,31.168-62.005h15.055c16.414,0,29.769-13.354,29.769-29.769v-10.536
			c0-11.658-6.74-21.767-16.525-26.65V78.83c0-28.408-23.112-51.52-51.521-51.52h-13.207C328.803,10.667,311.24,0,292.358,0h-62.359
			c-16.89,0-33.312,4.773-47.489,13.804c-3.494,2.225-4.522,6.861-2.296,10.355c2.225,3.494,6.862,4.522,10.355,2.296
			C202.334,18.961,215.969,15,229.999,15h62.359c13.713,0,26.439,7.966,32.429,20.305l1.359,2.79
			c1.256,2.579,3.874,4.215,6.742,4.215h17.87c20.138,0,36.521,16.383,36.521,36.52v86.259H374.74v-35.598
			c0-26-11.061-50.917-30.348-68.364c-3.117-2.819-7.516-3.726-11.48-2.365c-3.967,1.363-6.884,4.786-7.612,8.931
			c-5.87,33.367-34.771,57.585-68.72,57.585h-80.052h-12.132c-4.142,0-7.5,3.358-7.5,7.5c0,4.142,3.358,7.5,7.5,7.5h4.632v24.81
			h-12.54V88.51c0-15.811,4.94-30.87,14.287-43.55c2.458-3.334,1.747-8.029-1.587-10.487s-8.029-1.748-10.487,1.587
			c-11.261,15.276-17.213,33.414-17.213,52.45v79.698c-9.785,4.883-16.525,14.991-16.525,26.649v10.536
			c0,0.103,0.007,0.204,0.008,0.307h-1.243c-1.486,0-2.947-0.5-4.115-1.41l-24.381-18.969c-3.123-2.42-7.113-3.257-10.944-2.298
			c-3.831,0.96-6.954,3.578-8.569,7.19l-5.137,11.514c-1.08,2.413-3.483,3.972-6.124,3.972h-12.32v-35.71
			c0-6.198,5.047-11.24,11.25-11.24h20.53c4.142,0,7.5-3.358,7.5-7.5v-6.82c0-2.895,2.355-5.25,5.25-5.25h23.75
			c4.142,0,7.5-3.358,7.5-7.5c0-4.142-3.358-7.5-7.5-7.5h-23.75c-10.938,0-19.879,8.718-20.239,19.57h-13.04
			c-14.474,0-26.25,11.771-26.25,26.24v38.17v5.04v25.43h-8.25c-13.007,0-23.59,10.587-23.59,23.6v7.61
			c0,13.013,10.583,23.6,23.59,23.6h9.058c3.712,25.562,19.989,46.865,42.252,57.67v8.99h-2.22
			c-32.375,0-59.584,24.243-63.291,56.388l-7.17,61.961c-0.327,2.822,0.57,5.658,2.46,7.779c1.893,2.124,4.612,3.342,7.46,3.342
			h90.06c4.142,0,7.5-3.358,7.5-7.5c0-4.142-3.358-7.5-7.5-7.5h-47.9v-41.74c0-4.142-3.358-7.5-7.5-7.5c-4.142,0-7.5,3.358-7.5,7.5
			v41.74H23.067l6.522-56.361c2.833-24.576,23.637-43.109,48.39-43.109h2.681c2.631,15.786,16.378,27.86,32.899,27.86
			c8.903,0,17.278-3.472,23.583-9.776c4.986-4.986,8.192-11.27,9.318-18.083h2.678c0.016,0,0.033,0.001,0.049,0.001
			c-5.902,9.998-9.841,21.34-11.249,33.536l-9.922,85.752c-0.349,3.095,0.641,6.202,2.715,8.523
			c2.071,2.318,5.041,3.647,8.147,3.647h240.674c9.938,3.518,20.624,5.44,31.752,5.44c52.602,0,95.396-42.794,95.396-95.396
			C506.701,387.198,493.442,359.879,470.325,341.652z M154.733,180.088h21.796c4.142,0,7.5-3.358,7.5-7.5v-32.31h72.552
			c39.087,0,72.668-26.434,82.147-63.718c13.421,14.253,21.013,33.22,21.013,52.93v43.098c0,4.142,3.357,7.5,7.5,7.5h21.796
			c8.144,0,14.769,6.625,14.769,14.769v10.536c0,8.144-6.625,14.769-14.769,14.769h-21.932c-3.991,0-7.283,3.126-7.49,7.112
			c-1.164,22.499-10.806,43.463-27.146,59.031c-8.107,7.719-17.465,13.717-27.589,17.817c-0.093,0.037-0.185,0.077-0.276,0.118
			c-10.285,4.124-21.357,6.288-32.717,6.288c-11.58,0-22.651-2.247-32.798-6.326c-0.12-0.052-0.245-0.097-0.368-0.143
			c-30.66-12.487-52.761-41.794-54.563-76.784c-0.206-3.987-3.498-7.114-7.49-7.114h-21.933c-8.144,0-14.769-6.625-14.769-14.769
			v-10.535h-0.002C139.964,186.713,146.589,180.088,154.733,180.088z M300.169,321.588v31.522c0,7.552-2.943,14.659-8.288,20.011
			c-5.33,5.339-12.431,8.279-19.992,8.279c-15.599,0-28.29-12.691-28.29-28.29v-31.517c8.995,2.564,18.486,3.935,28.286,3.935
			C281.567,325.528,291.069,324.18,300.169,321.588z M131.919,369.6c0,4.897-1.912,9.505-5.383,12.977
			c-3.472,3.472-8.08,5.383-12.977,5.383c-10.124,0-18.36-8.236-18.36-18.36v-13.085c5.888,1.451,12.035,2.235,18.36,2.235
			c6.257,0,12.413-0.761,18.36-2.227V369.6z M149.139,360.1h-2.22v-9.018c7.019-3.412,13.546-7.901,19.335-13.414
			c8.632-8.23,15.303-18.494,19.29-29.68c1.39-3.902-0.646-8.192-4.547-9.583c-3.899-1.389-8.191,0.645-9.583,4.547
			c-3.203,8.989-8.567,17.24-15.507,23.857c-5.696,5.424-12.273,9.635-19.388,12.503c-0.013,0.006-0.027,0.011-0.04,0.017
			c-7.204,2.898-14.96,4.42-22.919,4.42c-8.089,0-15.823-1.569-22.912-4.417c-0.077-0.033-0.158-0.059-0.236-0.09
			c-21.45-8.72-36.918-29.217-38.182-53.691c-0.206-3.986-3.499-7.113-7.49-7.113H28.89c-4.736,0-8.59-3.858-8.59-8.6v-7.61
			c0-4.742,3.854-8.6,8.59-8.6h15.75c4.142,0,7.5-3.358,7.5-7.5V220.7h12.32c8.547,0,16.325-5.043,19.819-12.854l3.989-8.939
			l22.133,17.22c3.786,2.949,8.52,4.574,13.329,4.574h5.483c5.212,8.657,14.7,14.461,25.52,14.461h15.054
			c4.357,36.119,27.297,66.233,58.813,80.851v17.147h-5.95c-24.803,0-47.329,10.647-62.999,27.814
			C156.188,360.398,152.669,360.1,149.139,360.1z M194.345,491.56v-60.638c0-4.142-3.358-7.5-7.5-7.5c-4.142,0-7.5,3.358-7.5,7.5
			v60.638h-35.901l9.396-81.2c4.094-35.46,34.105-62.2,69.81-62.2h5.95v4.95c0,23.87,19.42,43.29,43.29,43.29
			c11.573,0,22.442-4.503,30.606-12.681c8.173-8.184,12.674-19.055,12.674-30.609v-4.95h5.95c7.133,0,14.072,1.048,20.741,3.111
			c-16.081,17.083-25.951,40.076-25.951,65.333c0,30.372,14.268,57.473,36.451,74.956H194.345z"/>
	</g>
</g>
<g>
	<g>
		<path d="M464.566,394.219H358.044c-5.91,0-10.719,4.808-10.719,10.718v23.334c0,5.91,4.809,10.718,10.719,10.718h106.522
			c5.91,0,10.719-4.808,10.719-10.718v-23.334C475.285,399.027,470.476,394.219,464.566,394.219z M460.285,423.99h-97.96v-14.771
			h97.96V423.99z"/>
	</g>
</g>
<g>
</g>
<g>
</g>
<g>
</g>
<g>
</g>
<g>
</g>
<g>
</g>
<g>
</g>
<g>
</g>
<g>
</g>
<g>
</g>
<g>
</g>
<g>
</g>
<g>
</g>
<g>
</g>
<g>
</g>
</svg>
