<?xml version="1.0" encoding="UTF-8" standalone="no"?>
<!-- Generator: Adobe Illustrator 16.0.0, SVG Export Plug-In . SVG Version: 6.00 Build 0)  -->

<svg
   xmlns:dc="http://purl.org/dc/elements/1.1/"
   xmlns:cc="http://creativecommons.org/ns#"
   xmlns:rdf="http://www.w3.org/1999/02/22-rdf-syntax-ns#"
   xmlns:svg="http://www.w3.org/2000/svg"
   xmlns="http://www.w3.org/2000/svg"
   xmlns:sodipodi="http://sodipodi.sourceforge.net/DTD/sodipodi-0.dtd"
   xmlns:inkscape="http://www.inkscape.org/namespaces/inkscape"
   version="1.1"
   id="Capa_1"
   x="0px"
   y="0px"
   width="612px"
   height="612px"
   viewBox="0 0 612 612"
   style="enable-background:new 0 0 612 612;"
   xml:space="preserve"
   sodipodi:docname="cross-square-button.svg"
   inkscape:version="0.92.3 (2405546, 2018-03-11)"><metadata
   id="metadata44"><rdf:RDF><cc:Work
       rdf:about=""><dc:format>image/svg+xml</dc:format><dc:type
         rdf:resource="http://purl.org/dc/dcmitype/StillImage" /></cc:Work></rdf:RDF></metadata><defs
   id="defs42" /><sodipodi:namedview
   pagecolor="#ffffff"
   bordercolor="#666666"
   borderopacity="1"
   objecttolerance="10"
   gridtolerance="10"
   guidetolerance="10"
   inkscape:pageopacity="0"
   inkscape:pageshadow="2"
   inkscape:window-width="1853"
   inkscape:window-height="1016"
   id="namedview40"
   showgrid="false"
   inkscape:zoom="0.54535033"
   inkscape:cx="-80.692333"
   inkscape:cy="123.97447"
   inkscape:window-x="67"
   inkscape:window-y="27"
   inkscape:window-maximized="1"
   inkscape:current-layer="Capa_1" />
<g
   id="g7">
	<g
   id="_x33__3_">
		<g
   id="g4">
			<path
   d="M400.669,211.331c-7.479-7.478-19.584-7.478-27.043,0L306,278.957l-67.626-67.626c-7.478-7.478-19.584-7.478-27.043,0     c-7.478,7.478-7.478,19.584,0,27.043L278.957,306l-67.626,67.626c-7.478,7.478-7.478,19.584,0,27.043     c7.478,7.478,19.584,7.478,27.043,0L306,333.043l67.626,67.606c7.478,7.479,19.584,7.479,27.043,0     c7.478-7.478,7.478-19.584,0-27.043L333.043,306l67.626-67.607C408.128,230.915,408.128,218.809,400.669,211.331z M535.5,0h-459     C34.253,0,0,34.253,0,76.5v459C0,577.747,34.253,612,76.5,612h459c42.247,0,76.5-34.253,76.5-76.5v-459     C612,34.253,577.747,0,535.5,0z M573.75,535.5c0,21.133-17.117,38.25-38.25,38.25h-459c-21.133,0-38.25-17.117-38.25-38.25v-459     c0-21.133,17.117-38.25,38.25-38.25h459c21.133,0,38.25,17.136,38.25,38.25V535.5z"
   id="path2" />
		</g>
	</g>
</g>
<g
   id="g9">
</g>
<g
   id="g11">
</g>
<g
   id="g13">
</g>
<g
   id="g15">
</g>
<g
   id="g17">
</g>
<g
   id="g19">
</g>
<g
   id="g21">
</g>
<g
   id="g23">
</g>
<g
   id="g25">
</g>
<g
   id="g27">
</g>
<g
   id="g29">
</g>
<g
   id="g31">
</g>
<g
   id="g33">
</g>
<g
   id="g35">
</g>
<g
   id="g37">
</g>
<path
   style="fill:#fd3018;fill-opacity:1;stroke-width:0.91684186"
   d="m 217.2726,404.08183 c -9.87682,-5.19053 -13.64924,-15.95266 -8.94823,-25.52795 0.7427,-1.51279 17.08298,-18.53428 36.31171,-37.82554 l 34.96134,-35.075 -35.54897,-35.55773 c -32.42423,-32.43223 -35.66784,-35.95274 -36.90142,-40.05161 -4.13491,-13.73926 7.83719,-26.18305 22.30392,-23.18268 4.10763,0.85192 6.13214,2.69806 40.31607,36.76407 l 35.99126,35.86711 35.06398,-34.95032 c 19.28519,-19.22268 36.45068,-35.64742 38.14553,-36.49943 3.433,-1.72578 11.25194,-2.0751 14.84855,-0.66338 9.3984,3.689 14.33831,15.38217 10.45104,24.73847 -0.95817,2.30626 -12.81751,14.82829 -36.66812,38.71713 l -35.25192,35.30842 35.30194,35.28841 c 38.44894,38.43419 38.6855,38.73261 37.82253,47.71369 -1.18594,12.34236 -15.38758,20.30647 -26.18394,14.68362 -1.8709,-0.97438 -18.87127,-17.27125 -37.77861,-36.21525 -18.90735,-18.94401 -34.78454,-34.44365 -35.28266,-34.44365 -0.49812,0 -16.59076,15.65951 -35.76142,34.79891 -23.56116,23.52275 -35.96029,35.25785 -38.26445,36.21525 -4.34778,1.80653 -11.38744,1.75818 -14.92813,-0.10254 z"
   id="path46"
   inkscape:connector-curvature="0" /><path
   style="fill:#fd3018;fill-opacity:1;stroke-width:0.91684186"
   d="M 66.452119,610.90936 C 40.529947,607.58779 16.452992,588.87873 6.1123543,564.0222 0.0279951,549.39679 0.38967316,566.74131 0.65802232,302.45601 L 0.9009976,63.160286 3.0155037,56.333001 C 5.3997373,48.634823 10.07466,38.889047 14.39596,32.608255 18.166926,27.127344 27.294739,18.025896 32.862108,14.195444 40.362394,9.035112 52.410542,3.9366564 61.485602,2.082743 69.804303,0.38334366 76.957263,0.33976678 309.1521,0.57392189 l 239.10041,0.24111895 8.07506,2.53256826 c 14.23753,4.4653027 24.28825,10.6343639 34.21092,20.9984409 9.79609,10.231865 15.87536,21.648133 19.29674,36.237421 1.6053,6.845198 1.67937,17.694597 1.67937,245.998329 v 238.8373 l -2.07358,7.79315 c -7.54232,28.34648 -27.07401,48.03758 -55.68746,56.14199 l -7.33474,2.07747 -237.00361,0.12064 c -130.35199,0.0664 -239.685381,-0.223 -242.963091,-0.64299 z M 544.55309,572.89418 c 14.9389,-3.89109 26.06942,-15.69221 28.90556,-30.64704 1.37042,-7.22622 1.26649,-466.838017 -0.10703,-473.311464 -1.14358,-5.389757 -4.42678,-12.425632 -7.96417,-17.067221 -3.57583,-4.692022 -11.85565,-10.129891 -18.47619,-12.134462 -5.91521,-1.791008 -9.08955,-1.811534 -243.04477,-1.571573 l -237.051287,0.243136 -6.911652,3.415983 c -8.450157,4.176366 -14.43683,10.275327 -18.494985,18.841885 l -2.920123,6.16423 V 306.12337 545.4191 l 2.94179,6.21053 c 5.1203,10.80967 15.930991,19.51883 26.897105,21.66846 2.253944,0.44183 108.667452,0.84563 237.457082,0.90107 206.9273,0.089 233.98428,-0.0588 238.76867,-1.30498 z"
   id="path48"
   inkscape:connector-curvature="0" /></svg>